<svg width="180" height="38" viewBox="0 0 180 38" fill="none" xmlns="http://www.w3.org/2000/svg">
<path fill-rule="evenodd" clip-rule="evenodd" d="M0 19.4135L0.00182842 19.2232L0.00559887 19.0327L0.0113211 18.8422L0.0189853 18.6517L0.0286105 18.4613L0.0401778 18.2708L0.0537063 18.0804L0.0691768 17.89L0.0866084 17.6997L0.105992 17.5094L0.127326 17.3195L0.150603 17.1294L0.175841 16.9396L0.20303 16.75L0.232162 16.5606L0.263245 16.3714L0.29628 16.1824L0.331247 15.9937L0.368166 15.8052L0.407027 15.617L0.44783 15.4291L0.490557 15.2416L0.535235 15.0545L0.581826 14.8676L0.63036 14.6812L0.680807 14.4951L0.733187 14.3095L0.787481 14.1243L0.843688 13.9396L0.9018 13.7554L0.961825 13.5717L1.02375 13.3884L1.08758 13.2058L1.15329 13.0236L1.22089 12.8421L1.29037 12.6611L1.36174 12.4808L1.43497 12.3011L1.51007 12.1221L1.58702 11.9437L1.66583 11.7659L1.74649 11.589L1.82899 11.4127L1.91332 11.2372L1.99949 11.0624L2.08747 10.8884L2.17726 10.7152L2.26886 10.5428L2.36225 10.3713L2.45744 10.2006L2.55441 10.0308L2.65314 9.86186L2.75365 9.6938L2.85591 9.5267L2.95992 9.36054L3.06567 9.19534L3.17314 9.03117L3.28235 8.86787L3.39326 8.70571L3.50587 8.54449L3.62017 8.38432L3.73615 8.22529L3.8538 8.06721L3.97311 7.91037L4.09408 7.75456L4.21668 7.59985L4.34091 7.44633L4.46676 7.29397L4.59421 7.14278L4.72326 6.99279L4.85389 6.84401L4.98609 6.69646L5.11984 6.55016L5.25516 6.40511L5.39199 6.26134L5.53036 6.11885L5.67023 5.97767L5.81159 5.83782L5.95445 5.6993L6.09877 5.56213L6.24455 5.42633L6.39177 5.29191L6.54042 5.15889L6.6905 5.02728L6.84197 4.89708L6.99483 4.76833L7.14906 4.64104L7.30466 4.51522L7.4616 4.39087L7.61987 4.26802L7.77941 4.14668L7.94037 4.02686L8.10256 3.90858L8.26598 3.79186L8.43063 3.67669L8.59661 3.5631L8.76373 3.45108L8.93207 3.34068L9.10165 3.23189L9.27246 3.12473L9.44432 3.0192L9.6174 2.91532L9.79153 2.81311L9.96679 2.71257L10.1432 2.61372L10.3206 2.51656L10.4991 2.4211L10.6786 2.32738L10.8592 2.23537L11.0408 2.14511L11.2234 2.0566L11.407 1.96984L11.5914 1.88487L11.7769 1.80168L11.9633 1.72027L12.1506 1.64067L12.3387 1.56288L12.5277 1.48691L12.7176 1.41276L12.9083 1.34047L13.0997 1.27001L13.2921 1.20142L13.4851 1.13468L13.679 1.06981L13.8735 1.00684L14.0687 0.945744L14.2647 0.886549L14.4614 0.829265L14.6586 0.773889L14.8566 0.720423L15.0552 0.668886L15.2543 0.619286L15.454 0.571634L15.6544 0.525911L15.8553 0.482153L16.0566 0.440344L16.2585 0.400501L16.4608 0.362634L16.6636 0.326733L16.8669 0.292818L17.0706 0.260889L17.2747 0.230945L17.4791 0.203006L17.684 0.177061L17.8892 0.153121L18.0946 0.131176L18.3004 0.111264L18.5065 0.0933564L18.7128 0.0774631L18.9193 0.0636026L20.03 0L20.0934 5.36624L20.1297 5.36582L20.2831 5.3656L20.4364 5.36689L20.5898 5.36969L20.7434 5.37402L20.8969 5.37985L21.0504 5.38718L21.204 5.39605L21.3576 5.40643L21.511 5.41832L21.6646 5.43173L21.818 5.44666L21.9714 5.46312L22.1246 5.48108L22.2777 5.50057L22.4307 5.52157L22.5837 5.54409L22.7364 5.56813L22.889 5.59369L23.0413 5.62075L23.1936 5.64934L23.3455 5.67943L23.4972 5.71105L23.6488 5.74416L23.8 5.77879L23.9509 5.81492L24.1016 5.85256L24.252 5.89171L24.4019 5.93235L24.5516 5.97449L24.701 6.01813L24.8499 6.06325L24.9985 6.10987L25.1467 6.15798L25.2945 6.20757L25.4418 6.25863L25.5886 6.31117L25.7351 6.36518L25.881 6.42067L26.0264 6.47761L26.1713 6.53603L26.3157 6.5959L26.4595 6.65721L26.6029 6.71998L26.7456 6.78419L26.8877 6.84983L27.0293 6.9169L27.1702 6.98541L27.3105 7.05534L27.4502 7.12668L27.5892 7.19943L27.7275 7.27359L27.8651 7.34915L28.002 7.4261L28.1383 7.50444L28.2737 7.58415L28.4085 7.66526L28.5424 7.74773L28.6756 7.83151L28.808 7.91673L28.9395 8.00318L29.0703 8.09105L29.2003 8.18026L29.3293 8.2707L29.4576 8.36257L29.5849 8.45566L29.7113 8.55009L29.8369 8.64585L29.9615 8.74285L30.0852 8.84118L30.2079 8.94064L30.3297 9.04143L30.4505 9.14356L30.5703 9.24682L30.6892 9.35133L30.8071 9.45706L30.9238 9.56403L31.0396 9.67224L31.1543 9.78158L31.268 9.89207L31.3805 10.0038L31.492 10.1166L31.6024 10.2307L31.7117 10.3459L31.8198 10.4622L31.9269 10.5796L32.0327 10.6981L32.1374 10.8177L32.2409 10.9385L32.3433 11.0603L32.4444 11.1831L32.5444 11.3071L32.6431 11.432L32.7406 11.558L32.8368 11.685L32.9319 11.8131L33.0255 11.9421L33.118 12.0721L33.2091 12.2031L33.2991 12.335L33.3876 12.4679L33.4749 12.6018L33.5608 12.7366L33.6453 12.8722L33.7286 13.0087L33.8104 13.1462L33.891 13.2845L33.9701 13.4237L34.0479 13.5637L34.1242 13.7046L34.1991 13.8463L34.2727 13.9888L34.3448 14.132L34.4154 14.276L34.4847 14.4209L34.5525 14.5664L34.6188 14.7127L34.6837 14.8598L34.7471 15.0075L34.809 15.156L34.8694 15.3051L34.9283 15.4549L34.9857 15.6053L35.0416 15.7564L35.096 15.908L35.1489 16.0604L35.2002 16.2133L35.2501 16.3668L35.2983 16.5208L35.345 16.6754L35.3901 16.8305L35.4337 16.9861L35.4756 17.1423L35.5161 17.2989L35.5548 17.456L35.5922 17.6136L35.6278 17.7716L35.6618 17.93L35.6943 18.0888L35.7251 18.2481L35.7543 18.4077L35.7819 18.5677L35.8079 18.7279L35.8322 18.8886L35.855 19.0496L35.876 19.2108L35.8954 19.3724L35.9132 19.5342L35.9293 19.6963L35.9438 19.8585L35.9567 20.0211L35.9679 20.1838L35.9774 20.3467L35.9852 20.5097L35.9915 20.673L35.9959 20.8363L35.9989 20.9998L36 21.1634L35.9995 21.3271L35.9973 21.4909L35.9935 21.6548L35.988 21.8186L35.9808 21.9824L35.972 22.1463L35.9613 22.3102L35.9491 22.4741L35.9352 22.6378L35.9196 22.8016L35.9023 22.9653L35.8833 23.1288L35.8626 23.2923L35.8404 23.4556L35.8163 23.6188L35.7906 23.7818L35.7633 23.9447L35.7342 24.1073L35.7035 24.2697L35.6711 24.432L35.637 24.594L35.6012 24.7557L35.5637 24.9172L35.5247 25.0783L35.4839 25.2391L35.4414 25.3996L35.3974 25.5597L35.3516 25.7195L35.3043 25.8789L35.2552 26.0381L35.2044 26.1966L35.1521 26.3549L35.0981 26.5126L35.0424 26.6699L34.9852 26.8268L34.9263 26.983L34.8657 27.1388L34.8036 27.2942L34.7398 27.4489L34.6744 27.6031L34.6075 27.7568L34.5389 27.9098L34.4687 28.0622L34.3969 28.214L34.3235 28.3652L34.2485 28.5158L34.1721 28.6656L34.0939 28.8148L34.0143 28.9632L33.933 29.111L33.8503 29.258L33.766 29.4043L33.6802 29.5498L33.5928 29.6945L33.504 29.8386L33.4135 29.9816L33.3216 30.1239L33.2283 30.2654L33.1334 30.406L33.037 30.5457L32.9391 30.6846L32.8399 30.8226L32.7391 30.9596L32.6368 31.0958L32.5332 31.231L32.4281 31.3651L32.3217 31.4984L32.2137 31.6306L32.1044 31.7618L31.9937 31.8921L31.8816 32.0213L31.7681 32.1494L31.6533 32.2765L31.5371 32.4026L31.4197 32.5275L31.3008 32.6514L31.1806 32.7741L31.0591 32.8956L30.9363 33.0161L30.8123 33.1354L30.687 33.2536L30.5604 33.3706L30.4325 33.4864L30.3034 33.6008L30.1731 33.7142L30.0415 33.8264L29.9088 33.9372L29.7748 34.0468L29.6397 34.1552L29.5034 34.2622L29.366 34.368L29.2274 34.4724L29.0876 34.5755L28.9468 34.6774L28.8048 34.7778L28.6618 34.877L28.5177 34.9747L28.3725 35.0711L28.2263 35.1661L28.0791 35.2597L27.9308 35.3519L27.7815 35.4427L27.6311 35.532L27.4798 35.62L27.3277 35.7064L27.1744 35.7913L27.0204 35.8749L26.8653 35.9569L26.7093 36.0375L26.5525 36.1166L26.3947 36.1941L26.2361 36.2701L26.0767 36.3447L25.9164 36.4177L25.7553 36.4891L25.5934 36.5589L25.4308 36.6273L25.2674 36.694L25.1032 36.7592L24.9382 36.8228L24.7725 36.8848L24.6062 36.9451L24.4391 37.0039L24.2714 37.061L24.103 37.1166L23.9339 37.1705L23.7643 37.2227L23.594 37.2733L23.4232 37.3223L23.2517 37.3696L23.0798 37.4153L22.9072 37.4592L22.7342 37.5014L22.5606 37.5421L22.3865 37.581L22.212 37.6182L22.037 37.6537L21.8616 37.6875L21.6857 37.7197L21.5095 37.75L21.3328 37.7786L21.1559 37.8056L20.9784 37.8308L20.8008 37.8543L20.6228 37.876L20.4444 37.896L20.2658 37.9142L20.087 37.9307L19.9079 37.9455L19.7286 37.9585L19.549 37.9697L19.3692 37.9792L19.1893 37.9869L19.0093 37.9928L18.829 37.997L18.6488 37.9993L18.4683 38L18.2878 37.9989L18.1072 37.9959L17.9266 37.9913L17.7459 37.9847L17.5653 37.9764L17.3846 37.9665L17.204 37.9546L17.0234 37.941L16.8429 37.9256L16.6624 37.9084L16.482 37.8895L16.3018 37.8688L16.1217 37.8463L15.9417 37.822L15.762 37.7958L15.5824 37.768L15.4031 37.7384L15.2239 37.707L15.045 37.6738L14.8664 37.6388L14.688 37.6021L14.51 37.5636L14.3322 37.5233L14.1548 37.4813L13.9778 37.4375L13.8011 37.3919L13.6248 37.3446L13.4489 37.2956L13.2735 37.2448L13.0984 37.1922L12.9239 37.1379L12.7499 37.0818L12.5763 37.0241L12.4032 36.9645L12.2307 36.9032L12.0588 36.8403L11.8874 36.7756L11.7166 36.7092L11.5464 36.6411L11.3769 36.5713L11.2079 36.4998L11.0397 36.4266L10.8721 36.3517L10.7052 36.2752L10.539 36.1969L10.3736 36.117L10.2089 36.0354L10.0449 35.9522L9.88181 35.8673L9.71953 35.7808L9.55791 35.6927L9.39723 35.603L9.23741 35.5116L9.07844 35.4186L8.92033 35.3239L8.76316 35.2278L8.60684 35.13L8.45147 35.0307L8.29715 34.9297L8.14367 34.8273L7.99124 34.7232L7.83985 34.6176L7.68941 34.5106L7.54002 34.4019L7.39168 34.2918L7.2444 34.18L7.09822 34.0669L6.95312 33.9523L6.80913 33.8362L6.66627 33.7186L6.52455 33.5996L6.38399 33.4791L6.24461 33.3573L6.10641 33.2339L5.96943 33.1091L5.83366 32.9831L5.69911 32.8555L5.56583 32.7266L5.4338 32.5963L5.30305 32.4647L5.17359 32.3318L5.04544 32.1975L4.9186 32.0619L4.79311 31.925L4.66896 31.7868L4.54617 31.6473L4.42476 31.5067L4.30474 31.3646L4.18612 31.2215L4.06892 31.077L3.95314 30.9313L3.83881 30.7845L3.72593 30.6365L3.61452 30.4872L3.50459 30.3368L3.39615 30.1853L3.28922 30.0326L3.1838 29.8789L3.07991 29.7241L2.97757 29.5681L2.87678 29.4111L2.77754 29.2531L2.67989 29.0939L2.58382 28.9339L2.48935 28.7726L2.3965 28.6106L2.30526 28.4475L2.21565 28.2834L2.12769 28.1183L2.04136 27.9523L1.95671 27.7855L1.87372 27.6177L1.79243 27.4491L1.71282 27.2795L1.63491 27.1092L1.55871 26.9379L1.48423 26.766L1.41148 26.5931L1.34048 26.4195L1.27121 26.2451L1.2037 26.0699L1.13796 25.8941L1.07398 25.7174L1.01179 25.5402L0.951376 25.3622L0.892762 25.1835L0.835958 25.0043L0.780954 24.8244L0.727778 24.6439L0.676421 24.4627L0.626893 24.281L0.579202 24.0987L0.533359 23.916L0.489363 23.7326L0.447234 23.5488L0.406961 23.3644L0.368555 23.1796L0.332024 22.9944L0.297369 22.8087L0.2646 22.6226L0.233725 22.4361L0.204736 22.2493L0.177651 22.062L0.152469 21.8744L0.129202 21.6865L0.107839 21.4983L0.0883896 21.3098L0.0708632 21.1212L0.0552601 20.9321L0.04158 20.7429L0.0298327 20.5534L0.020018 20.3638L0.0121358 20.174L0.00618636 19.9841L0.00217897 19.794L0.000123099 19.6038L0 19.4135ZM18.3582 5.47864L18.315 1.82095L18.274 1.82492L18.0856 1.84502L17.8978 1.86695L17.71 1.89074L17.523 1.91629L17.3362 1.94371L17.1495 1.97296L16.9635 2.00401L16.7776 2.0369L16.5927 2.07151L16.4075 2.10806L16.2236 2.14625L16.0394 2.18637L15.8562 2.22819L15.6732 2.27187L15.491 2.31722L15.3093 2.3644L15.1281 2.41333L14.9474 2.46403L14.7676 2.51644L14.5881 2.57064L14.4095 2.62653L14.2314 2.6842L14.0542 2.74346L13.8773 2.80459L13.7014 2.86736L13.5263 2.93179L13.3517 2.99797L13.1781 3.06577L13.0054 3.13521L12.8331 3.20643L12.6618 3.27927L12.4912 3.35377L12.3217 3.42983L12.1529 3.50755L11.9852 3.58684L11.8179 3.66787L11.652 3.75039L11.4868 3.83451L11.3227 3.92022L11.1594 4.00752L10.9973 4.0963L10.8359 4.18674L10.6755 4.27873L10.5165 4.37204L10.3581 4.46718L10.2011 4.56357L10.0451 4.66147L9.88996 4.76097L9.73601 4.86193L9.5832 4.96436L9.43181 5.06799L9.28099 5.17346L9.13168 5.28006L8.98352 5.38813L8.83639 5.49769L8.69059 5.60854L8.54612 5.72073L8.40249 5.83449L8.26048 5.94934L8.11952 6.06569L7.97987 6.18331L7.84146 6.3023L7.70447 6.42243L7.56851 6.54408L7.4341 6.66681L7.30083 6.79095L7.16911 6.91614L7.03859 7.04269L6.90952 7.17038L6.78177 7.29933L6.65525 7.42962L6.5304 7.56079L6.40695 7.6931L6.2846 7.82695L6.16394 7.96167L6.04476 8.09733L5.9268 8.23441L5.81056 8.37235L5.69561 8.51153L5.5822 8.65165L5.47028 8.79292L5.35981 8.93513L5.25098 9.07829L5.14357 9.2225L5.03763 9.36786L4.9334 9.51387L4.83057 9.66112L4.72937 9.80913L4.62973 9.95809L4.53159 10.108L4.43511 10.2588L4.34022 10.4103L4.24691 10.5628L4.15527 10.716L4.06514 10.8702L3.97663 11.0252L3.88986 11.1808L3.80464 11.3373L3.72106 11.4946L3.63916 11.6526L3.55888 11.8113L3.48033 11.9707L3.40341 12.1307L3.32819 12.2915L3.25461 12.453L3.18277 12.615L3.11256 12.7777L3.04407 12.941L2.97732 13.1048L2.91225 13.2692L2.84888 13.4342L2.78725 13.5997L2.72733 13.7658L2.66918 13.9322L2.61271 14.0993L2.55799 14.2668L2.50502 14.4348L2.45381 14.603L2.4043 14.7719L2.35658 14.941L2.3106 15.1106L2.26637 15.2805L2.2239 15.4508L2.1832 15.6213L2.14426 15.7922L2.10709 15.9634L2.07169 16.1349L2.03805 16.3066L2.00619 16.4785L1.9761 16.6507L1.94778 16.8231L1.92124 16.9956L1.89648 17.1683L1.8735 17.3412L1.85229 17.5142L1.83285 17.6873L1.81521 17.8606L1.79934 18.0338L1.78524 18.2071L1.77292 18.3806L1.76239 18.5541L1.75363 18.7274L1.74664 18.9009L1.74143 19.0743L1.738 19.2477L1.73634 19.4209L1.73645 19.5942L1.73833 19.7673L1.74197 19.9404L1.74738 20.1133L1.75455 20.286L1.7635 20.4586L1.77418 20.631L1.78663 20.8032L1.80083 20.9751L1.81679 21.1469L1.83447 21.3185L1.85391 21.4897L1.87509 21.6607L1.898 21.8313L1.92264 22.0016L1.94901 22.1717L1.97709 22.3412L2.00691 22.5105L2.03842 22.6794L2.07165 22.8479L2.10658 23.016L2.1432 23.1836L2.18152 23.3508L2.22153 23.5175L2.26322 23.6838L2.30659 23.8496L2.35161 24.0147L2.39831 24.1794L2.44666 24.3436L2.49667 24.5072L2.54832 24.6702L2.60159 24.8325L2.6565 24.9943L2.71304 25.1554L2.77119 25.316L2.83093 25.4758L2.89231 25.635L2.95524 25.7934L3.01977 25.9512L3.08588 26.1083L3.15355 26.2646L3.2228 26.4202L3.29358 26.575L3.36591 26.729L3.43977 26.8822L3.51516 27.0346L3.59206 27.1862L3.67048 27.337L3.75038 27.4869L3.83177 27.636L3.91464 27.7841L3.99897 27.9313L4.08477 28.0777L4.17202 28.2231L4.26067 28.3676L4.3508 28.5111L4.44231 28.6536L4.53524 28.7953L4.62957 28.9359L4.72527 29.0754L4.82233 29.214L4.92079 29.3516L5.02057 29.4881L5.12172 29.6236L5.22415 29.7579L5.32795 29.8912L5.433 30.0233L5.53937 30.1544L5.64705 30.2845L5.75593 30.4133L5.86611 30.541L5.97751 30.6675L6.09018 30.7929L6.20403 30.9171L6.31907 31.0401L6.43533 31.1619L6.55276 31.2826L6.67139 31.402L6.79113 31.5201L6.91206 31.637L7.03406 31.7526L7.15719 31.8671L7.28145 31.9802L7.40678 32.092L7.53311 32.2025L7.66061 32.3118L7.78917 32.4197L7.91858 32.5263L8.04922 32.6316L8.18072 32.7355L8.31325 32.8381L8.44674 32.9394L8.58126 33.0392L8.71664 33.1376L8.85297 33.2347L8.99015 33.3304L9.12837 33.4247L9.26735 33.5175L9.40737 33.609L9.54805 33.6991L9.68968 33.7876L9.83217 33.8748L9.97532 33.9605L10.1194 34.0448L10.2642 34.1275L10.4098 34.2088L10.5561 34.2886L10.7032 34.367L10.8509 34.4439L10.9993 34.5193L11.1485 34.5931L11.2984 34.6655L11.4489 34.7364L11.6 34.8057L11.7516 34.8735L11.9041 34.9398L12.057 35.0045L12.2105 35.0677L12.3646 35.1294L12.5192 35.1894L12.6744 35.248L12.8299 35.305L12.9861 35.3604L13.1427 35.4143L13.2998 35.4666L13.4574 35.5174L13.6152 35.5665L13.7737 35.6141L13.9324 35.6601L14.0915 35.7044L14.2511 35.7473L14.4109 35.7885L14.5711 35.8281L14.7315 35.8661L14.8923 35.9026L15.0534 35.9374L15.2146 35.9706L15.3763 36.0022L15.5381 36.0323L15.7001 36.0607L15.8623 36.0875L16.0246 36.1126L16.1872 36.1362L16.35 36.1581L16.5127 36.1786L16.6757 36.1973L16.8387 36.2144L17.0019 36.23L17.1651 36.2438L17.3283 36.2562L17.4915 36.2668L17.6549 36.2759L17.8181 36.2834L17.9813 36.2892L18.1446 36.2935L18.3078 36.2961L18.4708 36.2971L18.6339 36.2966L18.7968 36.2944L18.9596 36.2907L19.1223 36.2852L19.2848 36.2783L19.4472 36.2698L19.6093 36.2596L19.7713 36.2479L19.9331 36.2346L20.0946 36.2197L20.2559 36.2032L20.4169 36.1851L20.5776 36.1656L20.7381 36.1444L20.8982 36.1216L21.058 36.0972L21.2175 36.0714L21.3766 36.044L21.5354 36.015L21.6937 35.9845L21.8516 35.9525L22.0092 35.9188L22.1662 35.8838L22.3228 35.8471L22.4791 35.8089L22.6347 35.7693L22.7899 35.7281L22.9445 35.6854L23.0987 35.6412L23.2523 35.5956L23.4054 35.5484L23.5578 35.4999L23.7098 35.4497L23.8611 35.3982L24.0116 35.3452L24.1618 35.2907L24.3112 35.2348L24.4599 35.1775L24.608 35.1187L24.7553 35.0586L24.902 34.997L25.0479 34.934L25.1932 34.8696L25.3376 34.8038L25.4814 34.7367L25.6243 34.6681L25.7664 34.5982L25.9079 34.5269L26.0484 34.4543L26.1881 34.3804L26.3271 34.3051L26.465 34.2285L26.6022 34.1506L26.7384 34.0715L26.874 33.9909L27.0083 33.9092L27.1421 33.8261L27.2746 33.7418L27.4063 33.6562L27.5372 33.5694L27.667 33.4812L27.7957 33.3921L27.9235 33.3016L28.0503 33.2099L28.1762 33.1171L28.301 33.0229L28.4247 32.9279L28.5475 32.8313L28.6691 32.7339L28.7896 32.6353L28.9092 32.5354L29.0277 32.4344L29.1448 32.3325L29.2611 32.2293L29.3761 32.1252L29.4901 32.0199L29.6029 31.9136L29.7144 31.8064L29.825 31.6979L29.9343 31.5884L30.0424 31.4781L30.1493 31.3666L30.255 31.2543L30.3594 31.1411L30.4628 31.0265L30.5648 30.9114L30.6657 30.7951L30.7651 30.6781L30.8635 30.56L30.9605 30.4411L31.0562 30.3213L31.1507 30.2006L31.2438 30.0792L31.3358 29.9567L31.4263 29.8336L31.5156 29.7095L31.6037 29.5846L31.6901 29.4592L31.7755 29.3328L31.8593 29.2058L31.9419 29.0778L32.0233 28.9491L32.1031 28.8199L32.1815 28.6899L32.2587 28.5589L32.3343 28.4277L32.4087 28.2956L32.4818 28.1628L32.5532 28.0296L32.6234 27.8954L32.6922 27.7607L32.7593 27.6259L32.8253 27.49L32.8898 27.3535L32.9528 27.2167L33.0144 27.0794L33.0745 26.9414L33.1332 26.8031L33.1905 26.664L33.2463 26.5246L33.3006 26.385L33.3534 26.2444L33.4048 26.1038L33.4548 25.9625L33.5033 25.821L33.5503 25.679L33.5957 25.537L33.6398 25.3939L33.6823 25.251L33.7233 25.1076L33.7629 24.9641L33.801 24.82L33.8374 24.6759L33.8726 24.5313L33.9061 24.3864L33.9382 24.2414L33.9688 24.0961L33.9978 23.9508L34.0254 23.8049L34.0515 23.6594L34.076 23.5133L34.099 23.3671L34.1205 23.2208L34.1406 23.0744L34.1591 22.9281L34.1761 22.7811L34.1916 22.6347L34.2056 22.4878L34.218 22.3412L34.229 22.1942L34.2385 22.0477L34.2464 21.9007L34.2529 21.7537L34.2578 21.607L34.2613 21.4606L34.2632 21.3136L34.2637 21.167L34.2626 21.0205L34.2601 20.8741L34.256 20.7277L34.2504 20.5818L34.2434 20.4354L34.2349 20.2897L34.2248 20.144L34.2134 19.9987L34.2004 19.8532L34.186 19.7083L34.1701 19.5634L34.1526 19.4189L34.1338 19.2745L34.1135 19.1305L34.0916 18.9865L34.0684 18.8432L34.0438 18.7003L34.0176 18.5573L33.99 18.4148L33.961 18.2729L33.9305 18.1308L33.8987 17.9899L33.8653 17.8487L33.8307 17.7085L33.7944 17.5681L33.7569 17.4287L33.718 17.2895L33.6776 17.1506L33.6359 17.0126L33.5928 16.875L33.5482 16.7376L33.5025 16.6012L33.4551 16.4648L33.4066 16.3294L33.3566 16.1942L33.3053 16.0599L33.2525 15.9259L33.1985 15.7926L33.1433 15.6602L33.0868 15.5283L33.0286 15.3967L32.9696 15.2662L32.9088 15.1359L32.8471 15.0068L32.784 14.8781L32.7195 14.75L32.6539 14.6229L32.5869 14.4963L32.5186 14.3704L32.4495 14.2456L32.3787 14.1212L32.3069 13.9978L32.2336 13.8749L32.1596 13.7533L32.0839 13.632L32.0073 13.5118L31.9293 13.3922L31.8503 13.2737L31.7703 13.1562L31.6888 13.0391L31.6063 12.9231L31.5227 12.808L31.438 12.6939L31.3521 12.5805L31.2652 12.4682L31.1771 12.3566L31.088 12.2462L30.9978 12.1366L30.9065 12.028L30.8141 11.9203L30.7208 11.8136L30.6265 11.708L30.5311 11.6033L30.4345 11.4995L30.3374 11.3971L30.2387 11.2952L30.1395 11.1948L30.0392 11.0951L29.938 10.9967L29.8355 10.8991L29.7326 10.8029L29.6284 10.7075L29.5233 10.6133L29.4177 10.5203L29.311 10.4283L29.2031 10.3372L29.0946 10.2475L28.9854 10.1588L28.8752 10.0713L28.7642 9.98488L28.6526 9.89986L28.5398 9.81549L28.4265 9.73275L28.3124 9.65105L28.1974 9.57039L28.0819 9.49107L27.9652 9.41269L27.8485 9.33593L27.7304 9.26003L27.612 9.18545L27.4926 9.11202L27.3728 9.03982L27.2523 8.96895L27.1313 8.89941L27.0092 8.83072L26.8871 8.76365L26.7639 8.69763L26.6403 8.63294L26.5162 8.56957L26.3913 8.50735L26.266 8.44635L26.1402 8.38679L26.0137 8.32836L25.8869 8.27137L25.7595 8.2155L25.6275 8.15927L25.5034 8.10787L25.3743 8.05581L25.2454 8.00536L25.1154 7.95587L24.9854 7.90799L24.8549 7.86125L24.724 7.81593L24.5926 7.77176L24.4611 7.7291L24.3291 7.68769L24.1967 7.6476L24.0643 7.60893L23.9313 7.57146L23.7978 7.53529L23.6645 7.50058L23.5309 7.4672L23.3965 7.43504L23.2625 7.40437L23.1279 7.37492L22.9933 7.34689L22.8582 7.32014L22.7233 7.29479L22.588 7.27076L22.4528 7.24812L22.317 7.22674L22.1815 7.20679L22.0457 7.18815L21.9098 7.17085L21.7738 7.15491L21.6379 7.14033L21.5019 7.12709L21.3657 7.1152L21.2295 7.10464L21.0932 7.09543L20.9572 7.08758L20.8212 7.08107L20.6847 7.07589L20.5489 7.07208L20.4129 7.06959L20.2769 7.06845L20.1408 7.06864L20.1135 7.06895L20.1564 10.7L20.2336 10.6997L20.333 10.7002L20.4324 10.7017L20.5318 10.7043L20.6314 10.7078L20.731 10.7124L20.8305 10.7179L20.9302 10.7244L21.0299 10.7319L21.1295 10.7403L21.2292 10.7498L21.3288 10.7603L21.4284 10.7718L21.528 10.7842L21.6275 10.7976L21.7269 10.8121L21.8263 10.8275L21.9256 10.844L22.0249 10.8614L22.124 10.8799L22.223 10.8993L22.3219 10.9198L22.4207 10.9411L22.5193 10.9636L22.6178 10.987L22.7161 11.0114L22.8141 11.0368L22.9121 11.0632L23.0099 11.0906L23.1075 11.119L23.2048 11.1483L23.3019 11.1786L23.3988 11.21L23.4954 11.2423L23.5918 11.2756L23.6879 11.3099L23.7838 11.3452L23.8793 11.3814L23.9746 11.4186L24.0695 11.4568L24.1641 11.4959L24.2584 11.5361L24.3524 11.5772L24.446 11.6193L24.5392 11.6622L24.6321 11.7062L24.7246 11.7511L24.8167 11.797L24.9084 11.8438L24.9997 11.8916L25.0906 11.9403L25.1811 11.99L25.2711 12.0405L25.3606 12.092L25.4497 12.1444L25.5384 12.1978L25.6265 12.2521L25.7141 12.3073L25.8013 12.3634L25.888 12.4204L25.9741 12.4783L26.0597 12.5371L26.1448 12.5968L26.2293 12.6573L26.3133 12.7188L26.3966 12.7812L26.4795 12.8444L26.5617 12.9085L26.6433 12.9735L26.7243 13.0392L26.8047 13.1059L26.8845 13.1735L26.9637 13.2418L27.0423 13.3109L27.1201 13.3809L27.1973 13.4518L27.2738 13.5234L27.3497 13.5959L27.4248 13.6692L27.4993 13.7433L27.5731 13.8181L27.6461 13.8938L27.7185 13.9702L27.79 14.0475L27.8609 14.1255L27.931 14.2042L28.0003 14.2836L28.0689 14.3639L28.1367 14.4448L28.2038 14.5265L28.27 14.609L28.3355 14.6921L28.4001 14.776L28.464 14.8606L28.527 14.9459L28.5891 15.0318L28.6505 15.1184L28.7109 15.2057L28.7706 15.2937L28.8294 15.3823L28.8873 15.4715L28.9443 15.5615L29.0005 15.652L29.0558 15.7431L29.1102 15.8349L29.1636 15.9273L29.2162 16.0202L29.2678 16.1138L29.3185 16.208L29.3683 16.3027L29.4172 16.3979L29.4651 16.4938L29.512 16.5902L29.5581 16.6871L29.6031 16.7845L29.6471 16.8825L29.6902 16.981L29.7324 17.08L29.7735 17.1794L29.8137 17.2794L29.8528 17.3798L29.8909 17.4806L29.928 17.5819L29.9641 17.6837L29.9993 17.7859L30.0334 17.8885L30.0663 17.9916L30.0984 18.0949L30.1293 18.1988L30.1593 18.303L30.1882 18.4076L30.2159 18.5126L30.2427 18.6178L30.2684 18.7235L30.2931 18.8294L30.3166 18.9357L30.3391 19.0423L30.3605 19.1491L30.3808 19.2563L30.4 19.3638L30.4182 19.4716L30.4353 19.5795L30.4512 19.6878L30.466 19.7962L30.4798 19.9049L30.4925 20.0138L30.5039 20.123L30.5144 20.2322L30.5237 20.3418L30.5319 20.4514L30.539 20.5612L30.5449 20.6711L30.5497 20.7812L30.5534 20.8915L30.556 21.0018L30.5574 21.1123L30.5577 21.2229L30.5568 21.3335L30.5548 21.4442L30.5517 21.5549L30.5474 21.6658L30.542 21.7766L30.5355 21.8874L30.5278 21.9984L30.519 22.1093L30.509 22.2201L30.4979 22.331L30.4856 22.4418L30.4722 22.5526L30.4576 22.6633L30.4419 22.774L30.425 22.8846L30.407 22.995L30.3879 23.1054L30.3675 23.2157L30.3461 23.3259L30.3235 23.4359L30.2997 23.5458L30.2749 23.6556L30.2488 23.7651L30.2216 23.8745L30.1933 23.9837L30.1638 24.0927L30.1332 24.2014L30.1015 24.3099L30.0686 24.4182L30.0346 24.5263L29.9994 24.6342L29.9631 24.7416L29.9257 24.8489L29.8872 24.9558L29.8475 25.0624L29.8067 25.1687L29.7648 25.2747L29.7218 25.3804L29.6776 25.4857L29.6324 25.5906L29.586 25.6952L29.5386 25.7994L29.49 25.9032L29.4403 26.0065L29.3895 26.1095L29.3376 26.212L29.2847 26.3141L29.2307 26.4157L29.1755 26.5169L29.1194 26.6176L29.0621 26.7178L29.0038 26.8175L28.9444 26.9167L28.8839 27.0153L28.8225 27.1136L28.7598 27.2111L28.6963 27.3082L28.6316 27.4046L28.5659 27.5006L28.4992 27.596L28.4315 27.6907L28.3627 27.7848L28.293 27.8784L28.2222 27.9713L28.1504 28.0636L28.0776 28.1551L28.0038 28.2462L27.9291 28.3364L27.8534 28.4261L27.7767 28.515L27.699 28.6033L27.6203 28.6908L27.5408 28.7776L27.4602 28.8637L27.3789 28.9491L27.2964 29.0336L27.2132 29.1175L27.1288 29.2005L27.0438 29.2829L26.9577 29.3644L26.8708 29.4451L26.783 29.525L26.6942 29.6041L26.6047 29.6824L26.5142 29.7599L26.423 29.8365L26.3308 29.9123L26.2378 29.9871L26.144 30.0611L26.0493 30.1343L25.9539 30.2066L25.8577 30.2779L25.7606 30.3484L25.6628 30.4181L25.5642 30.4866L25.4648 30.5544L25.3646 30.6212L25.2637 30.687L25.162 30.7519L25.0597 30.8158L24.9565 30.8787L24.8528 30.9407L24.7482 31.0017L24.643 31.0617L24.5371 31.1207L24.4305 31.1787L24.3233 31.2357L24.2154 31.2917L24.1068 31.3466L23.9977 31.4004L23.8879 31.4534L23.7774 31.5051L23.6664 31.5559L23.5548 31.6056L23.4426 31.6542L23.3298 31.7017L23.2165 31.7481L23.1026 31.7936L22.9882 31.8378L22.8733 31.881L22.7578 31.9231L22.6418 31.9641L22.5253 32.0039L22.4084 32.0426L22.2909 32.0802L22.1731 32.1166L22.0547 32.152L21.9359 32.1861L21.8168 32.2192L21.6971 32.251L21.5771 32.2817L21.4567 32.3112L21.3359 32.3396L21.2146 32.3668L21.0932 32.3928L20.9712 32.4176L20.849 32.4413L20.7265 32.4638L20.6037 32.4851L20.4805 32.5051L20.3571 32.5239L20.2334 32.5416L20.1094 32.558L19.9852 32.5733L19.8608 32.5873L19.7361 32.6001L19.6113 32.6117L19.4862 32.6221L19.361 32.6312L19.2356 32.6391L19.1099 32.6457L18.9842 32.6511L18.8583 32.6553L18.7323 32.6582L18.6062 32.66L18.4799 32.6604L18.3537 32.6597L18.2274 32.6576L18.1009 32.6544L17.9744 32.6498L17.8479 32.644L17.7214 32.637L17.5949 32.6287L17.4683 32.6192L17.3419 32.6084L17.2154 32.5963L17.0889 32.583L16.9625 32.5685L16.8363 32.5527L16.71 32.5356L16.5839 32.5173L16.4579 32.4977L16.332 32.4769L16.2062 32.4548L16.0805 32.4315L15.9551 32.4069L15.8299 32.3809L15.7047 32.3539L15.5799 32.3256L15.4552 32.2959L15.3307 32.265L15.2065 32.2329L15.0825 32.1996L14.9588 32.165L14.8354 32.1292L14.7123 32.0921L14.5894 32.0539L14.4669 32.0142L14.3448 31.9735L14.2228 31.9315L14.1014 31.8883L13.9803 31.8438L13.8595 31.7981L13.7392 31.7512L13.6193 31.7031L13.4997 31.6537L13.3806 31.6032L13.262 31.5515L13.1439 31.4985L13.0261 31.4443L12.9089 31.389L12.7922 31.3325L12.676 31.2748L12.5602 31.2159L12.4451 31.1558L12.3305 31.0945L12.2164 31.0321L12.1029 30.9686L11.99 30.9038L11.8776 30.8379L11.7659 30.7709L11.6548 30.7027L11.5443 30.6334L11.4345 30.5629L11.3254 30.4914L11.2169 30.4186L11.1091 30.3448L11.002 30.2699L10.8956 30.1939L10.7899 30.1168L10.6849 30.0386L10.5806 29.9593L10.4771 29.8789L10.3744 29.7975L10.2725 29.715L10.1713 29.6315L10.0709 29.5468L9.97134 29.4612L9.87262 29.3745L9.77466 29.2868L9.67756 29.1981L9.5814 29.1084L9.486 29.0177L9.39145 28.9259L9.29785 28.8332L9.2052 28.7395L9.1134 28.6448L9.02245 28.5492L8.93245 28.4526L8.84349 28.3551L8.75539 28.2566L8.66823 28.1572L8.58212 28.0569L8.49685 27.9557L8.41273 27.8536L8.32945 27.7505L8.24732 27.6467L8.16613 27.5419L8.08598 27.4363L8.00687 27.3298L7.92872 27.2225L7.8517 27.1143L7.77581 27.0054L7.70087 26.8955L7.62707 26.785L7.55437 26.6736L7.48276 26.5614L7.41225 26.4485L7.34286 26.3348L7.2746 26.2203L7.20747 26.1051L7.14147 25.9891L7.07662 25.8726L7.01294 25.7552L6.95043 25.6372L6.88907 25.5184L6.82891 25.399L6.76993 25.2789L6.71215 25.1582L6.65558 25.0369L6.60021 24.9148L6.54606 24.7922L6.49314 24.669L6.44145 24.5451L6.39099 24.4208L6.3418 24.2959L6.29384 24.1703L6.24715 24.0442L6.20171 23.9177L6.15755 23.7905L6.11468 23.6629L6.07308 23.5347L6.03277 23.4061L5.99375 23.2771L5.95604 23.1475L5.91963 23.0175L5.88453 22.8871L5.85076 22.7562L5.8183 22.625L5.78716 22.4933L5.75737 22.3613L5.7289 22.2289L5.70178 22.0961L5.676 21.963L5.65156 21.8296L5.62849 21.6958L5.60677 21.5618L5.58641 21.4274L5.56742 21.2928L5.5498 21.1579L5.53355 21.0227L5.51868 20.8874L5.50518 20.7518L5.49306 20.6159L5.48234 20.4799L5.47299 20.3438L5.46504 20.2074L5.45848 20.0708L5.45332 19.9342L5.44956 19.7974L5.44719 19.6605L5.44622 19.5235L5.44667 19.3864L5.44851 19.2492L5.45176 19.112L5.45642 18.9747L5.46249 18.8374L5.46997 18.7001L5.47886 18.5627L5.48917 18.4254L5.50088 18.2881L5.51401 18.1509L5.52856 18.0136L5.54451 17.8765L5.56189 17.7394L5.58067 17.6025L5.60087 17.4656L5.62249 17.3289L5.64551 17.1922L5.66995 17.0558L5.69581 16.9195L5.72307 16.7834L5.75174 16.6475L5.78183 16.5118L5.81332 16.3763L5.84621 16.241L5.88051 16.106L5.91621 15.9713L5.95331 15.8368L5.99181 15.7026L6.03171 15.5688L6.073 15.4352L6.11569 15.3019L6.15976 15.1691L6.20522 15.0366L6.25206 14.9045L6.30028 14.7727L6.34988 14.6413L6.40085 14.5104L6.45319 14.3799L6.5069 14.2498L6.56197 14.1202L6.61839 13.991L6.67618 13.8624L6.73531 13.7342L6.79579 13.6066L6.8576 13.4795L6.92076 13.3529L6.98525 13.2269L7.05106 13.1014L7.1182 12.9765L7.18665 12.8523L7.25642 12.7286L7.32748 12.6055L7.39985 12.4831L7.47352 12.3613L7.54846 12.2402L7.62471 12.1197L7.7022 11.9999L7.78102 11.8809L7.86098 11.7625L7.94236 11.6449L8.02487 11.528L8.10862 11.4118L8.1937 11.2964L8.27991 11.1818L8.36744 11.068L8.45612 10.9549L8.54602 10.8427L8.63706 10.7314L8.72934 10.6208L8.82284 10.5111L8.91748 10.4022L9.01326 10.2943L9.11027 10.1872L9.20833 10.081L9.30761 9.97576L9.40803 9.87135L9.50949 9.76799L9.61209 9.66549L9.71583 9.56393L9.82071 9.46342L9.92662 9.36377L10.0336 9.26525L10.1417 9.16759L10.2508 9.07107L10.3609 8.9755L10.4721 8.88098L10.5844 8.7875L10.6976 8.69507L10.8118 8.60367L10.9271 8.51342L11.0434 8.42422L11.1606 8.33615L11.2788 8.24914L11.3979 8.16325L11.5179 8.07852L11.639 7.99492L11.7609 7.91246L11.8837 7.83123L12.0075 7.75105L12.1321 7.6721L12.2576 7.59434L12.384 7.51776L12.5112 7.44239L12.6392 7.36823L12.7682 7.29529L12.8979 7.22357L13.0283 7.15311L13.1596 7.08389L13.2917 7.01593L13.4245 6.94923L13.5581 6.8838L13.6924 6.81966L13.8275 6.75681L13.9633 6.69525L14.0998 6.63499L14.237 6.57605L14.3748 6.51843L14.5133 6.46214L14.6524 6.40718L14.7922 6.35356L14.9326 6.30129L15.0737 6.25038L15.2153 6.20083L15.3575 6.15265L15.5003 6.10584L15.6435 6.06042L15.7874 6.01638L15.9318 5.97373L16.0767 5.93249L16.2221 5.89265L16.368 5.85422L16.5143 5.81721L16.6612 5.78162L16.8084 5.74747L16.9561 5.71473L17.1042 5.68344L17.2526 5.65359L17.4015 5.6252L17.5508 5.59825L17.7003 5.57275L17.8503 5.54871L18.0006 5.52614L18.1511 5.50504L18.3019 5.4854L18.3582 5.47864ZM18.4219 10.8643L18.3785 7.1933L18.2548 7.21062L18.1219 7.2306L17.9889 7.25191L17.8568 7.27444L17.7244 7.29834L17.5927 7.32346L17.4613 7.34988L17.3304 7.37754L17.1998 7.4065L17.0694 7.43675L16.9394 7.46824L16.81 7.50098L16.6807 7.53503L16.5565 7.56903L16.4241 7.60674L16.2963 7.64446L16.1691 7.68341L16.0425 7.7235L15.9163 7.76492L15.7905 7.80758L15.6652 7.85137L15.5406 7.89631L15.4165 7.94257L15.293 7.98988L15.1699 8.03852L15.0478 8.0882L14.9257 8.13922L14.8045 8.19128L14.6839 8.24448L14.5642 8.29882L14.4447 8.35439L14.3259 8.41111L14.2082 8.46877L14.0906 8.52777L13.9743 8.58771L13.8581 8.64899L13.7431 8.71103L13.6283 8.77458L13.5146 8.8388L13.4017 8.90425L13.2893 8.97085L13.1778 9.03839L13.0669 9.10717L12.9571 9.17671L12.8477 9.24749L12.7395 9.31921L12.6319 9.39189L12.5252 9.4657L12.4191 9.54056L12.3142 9.61609L12.2099 9.69295L12.1064 9.77065L12.0039 9.84931L11.9024 9.92883L11.8015 10.0095L11.7017 10.0909L11.6028 10.1733L11.5047 10.2568L11.4077 10.3408L11.3115 10.4261L11.2162 10.5121L11.1219 10.599L11.0287 10.6866L10.9361 10.7754L10.8449 10.8647L10.7545 10.9549L10.665 11.0461L10.5766 11.138L10.4892 11.2308L10.4028 11.3243L10.3174 11.4185L10.233 11.5136L10.1495 11.6096L10.0675 11.706L9.98621 11.8034L9.90597 11.9015L9.82686 12.0002L9.74889 12.0996L9.67178 12.1999L9.59589 12.3007L9.52105 12.4023L9.44735 12.5045L9.37468 12.6074L9.30325 12.7107L9.23286 12.8148L9.16352 12.9196L9.09531 13.025L9.02833 13.1308L8.96248 13.2373L8.89769 13.3446L8.83402 13.4521L8.77159 13.5603L8.7102 13.6691L8.65014 13.7781L8.59112 13.888L8.53314 13.9983L8.47658 14.1089L8.42106 14.2203L8.36678 14.332L8.31363 14.444L8.26172 14.5567L8.21094 14.6696L8.16139 14.783L8.11298 14.8969L8.0659 15.011L8.01995 15.1256L7.97514 15.2407L7.93156 15.356L7.88931 15.4716L7.84809 15.5877L7.80831 15.7039L7.76956 15.8205L7.73214 15.9375L7.69585 16.0547L7.66089 16.1721L7.62707 16.2898L7.59458 16.4077L7.56323 16.526L7.53314 16.6444L7.50429 16.763L7.47669 16.8819L7.4503 17.0008L7.42515 17.12L7.40127 17.2394L7.3786 17.3588L7.35717 17.4785L7.337 17.5982L7.31804 17.7181L7.30035 17.8379L7.28388 17.9579L7.26867 18.078L7.25468 18.1982L7.24194 18.3184L7.23044 18.4386L7.22018 18.5589L7.21116 18.6791L7.20337 18.7995L7.19682 18.9197L7.1915 19.0399L7.18743 19.1601L7.18458 19.2802L7.18297 19.4002L7.18258 19.5203L7.18342 19.6402L7.1855 19.76L7.18879 19.8797L7.1933 19.9992L7.19904 20.1187L7.206 20.238L7.21416 20.3571L7.22355 20.4761L7.23414 20.5949L7.24595 20.7134L7.25895 20.8318L7.27316 20.95L7.28857 21.068L7.30517 21.1856L7.32297 21.3031L7.34194 21.4201L7.36211 21.5371L7.38347 21.6537L7.40599 21.7699L7.42969 21.886L7.45455 22.0016L7.48059 22.117L7.50776 22.2319L7.53613 22.3466L7.56563 22.4608L7.59628 22.5748L7.62802 22.6882L7.66099 22.8013L7.695 22.914L7.73024 23.0263L7.76653 23.1382L7.80395 23.2495L7.84251 23.3604L7.88211 23.4709L7.92284 23.5809L7.96472 23.6904L8.00763 23.7994L8.05159 23.9079L8.09668 24.0159L8.14282 24.1234L8.19009 24.2302L8.23832 24.3366L8.28767 24.4424L8.33807 24.5476L8.38942 24.6523L8.44191 24.7563L8.49534 24.8599L8.54981 24.9628L8.60533 25.065L8.66179 25.1666L8.71929 25.2676L8.77775 25.3679L8.83724 25.4676L8.89769 25.5667L8.95907 25.665L9.02141 25.7627L9.08479 25.8598L9.14893 25.9559L9.2142 26.0516L9.28023 26.1464L9.34731 26.2405L9.41523 26.3339L9.48411 26.4265L9.55383 26.5184L9.62451 26.6096L9.69594 26.6999L9.76832 26.7895L9.84155 26.8783L9.91563 26.9664L9.99057 27.0535L10.0664 27.1401L10.1429 27.2256L10.2203 27.3104L10.2985 27.3943L10.3775 27.4774L10.4572 27.5597L10.5379 27.6411L10.6191 27.7217L10.7013 27.8014L10.7842 27.8802L10.8676 27.9581L10.9521 28.0353L11.037 28.1114L11.1228 28.1866L11.2093 28.261L11.2964 28.3344L11.3842 28.407L11.4727 28.4785L11.5619 28.5492L11.6517 28.6189L11.7422 28.6878L11.8333 28.7556L11.9249 28.8225L12.0172 28.8885L12.1101 28.9534L12.2036 29.0175L12.2978 29.0805L12.3924 29.1426L12.4876 29.2037L12.5834 29.2638L12.6797 29.3229L12.7765 29.381L12.8739 29.4381L12.9717 29.4942L13.0701 29.5493L13.1688 29.6033L13.2682 29.6564L13.3679 29.7085L13.4681 29.7594L13.5688 29.8095L13.67 29.8584L13.7714 29.9064L13.8733 29.9532L13.9757 29.9991L14.0783 30.0438L14.1813 30.0875L14.2848 30.1303L14.3886 30.1719L14.4927 30.2125L14.5971 30.252L14.7019 30.2905L14.807 30.3279L14.9123 30.3642L15.0181 30.3995L15.124 30.4336L15.2302 30.4668L15.3367 30.4988L15.4433 30.5298L15.5502 30.5597L15.6573 30.5885L15.7647 30.6163L15.8722 30.6429L15.9799 30.6685L16.0878 30.693L16.1959 30.7164L16.3041 30.7388L16.4124 30.76L16.521 30.7801L16.6294 30.7992L16.7382 30.8172L16.847 30.8341L16.9558 30.8499L17.0648 30.8646L17.1737 30.8783L17.2827 30.8909L17.3918 30.9024L17.5009 30.9127L17.6101 30.922L17.7192 30.9302L17.8283 30.9374L17.9374 30.9434L18.0464 30.9484L18.1556 30.9523L18.2645 30.9552L18.3734 30.9569L18.4822 30.9576L18.591 30.9572L18.6996 30.9557L18.8082 30.9532L18.9166 30.9496L19.025 30.9449L19.1331 30.9391L19.2411 30.9324L19.3489 30.9245L19.4566 30.9156L19.564 30.9056L19.6713 30.8946L19.7785 30.8825L19.8854 30.8694L19.992 30.8552L20.0984 30.8401L20.2046 30.8239L20.3105 30.8066L20.4161 30.7884L20.5215 30.769L20.6266 30.7486L20.7314 30.7274L20.8359 30.7049L20.94 30.6816L21.0438 30.6573L21.1473 30.6318L21.2504 30.6055L21.3532 30.5781L21.4556 30.5497L21.5577 30.5204L21.6593 30.4901L21.7605 30.4588L21.8613 30.4265L21.9618 30.3933L22.0617 30.3591L22.1613 30.3239L22.2604 30.2878L22.359 30.2508L22.4572 30.2128L22.5549 30.1738L22.6521 30.1339L22.7489 30.0931L22.845 30.0514L22.9408 30.0089L23.0359 29.9654L23.1307 29.9209L23.2248 29.8756L23.3182 29.8295L23.4115 29.7823L23.5038 29.7344L23.5958 29.6855L23.687 29.6359L23.7777 29.5854L23.8679 29.534L23.9573 29.4817L24.0463 29.4286L24.1346 29.3748L24.2221 29.32L24.3093 29.2645L24.3955 29.2082L24.4812 29.151L24.5664 29.093L24.6507 29.0343L24.7343 28.9749L24.8175 28.9145L24.8997 28.8536L24.9813 28.7917L25.0623 28.7291L25.1423 28.666L25.222 28.6018L25.3008 28.5371L25.3786 28.4717L25.4561 28.4053L25.5325 28.3385L25.6082 28.271L25.6834 28.2026L25.7575 28.1338L25.831 28.0641L25.9038 27.9938L25.9756 27.923L26.0468 27.8513L26.1171 27.7791L26.1867 27.7063L26.2553 27.6328L26.3232 27.5587L26.3904 27.4841L26.4565 27.4089L26.5221 27.3329L26.5866 27.2565L26.6502 27.1796L26.7132 27.1019L26.7752 27.024L26.8364 26.9452L26.8967 26.8661L26.9562 26.7863L27.0148 26.7061L27.0724 26.6256L27.1293 26.5441L27.1852 26.4625L27.2403 26.3804L27.2945 26.2976L27.3476 26.2147L27.4001 26.1311L27.4515 26.047L27.5021 25.9626L27.5517 25.8778L27.6005 25.7924L27.6482 25.707L27.6952 25.6207L27.7411 25.5344L27.786 25.4477L27.8303 25.3602L27.8733 25.273L27.9156 25.1849L27.9567 25.097L27.9973 25.0082L28.0365 24.9195L28.0751 24.8301L28.1126 24.7408L28.1491 24.6512L28.1847 24.5611L28.2194 24.4708L28.2529 24.3804L28.2858 24.2895L28.3174 24.1985L28.3482 24.1073L28.378 24.0158L28.4069 23.924L28.4349 23.8322L28.4618 23.7402L28.4877 23.6479L28.5127 23.5555L28.5367 23.4629L28.5597 23.3702L28.5818 23.2775L28.6029 23.1843L28.623 23.0912L28.6423 22.998L28.6604 22.9048L28.6776 22.8114L28.6938 22.7176L28.7091 22.6243L28.7234 22.5306L28.7366 22.4368L28.7489 22.3432L28.7603 22.2495L28.7707 22.1554L28.7801 22.062L28.7886 21.9679L28.7961 21.8741L28.8026 21.7806L28.8081 21.6867L28.8127 21.593L28.8163 21.4995L28.8189 21.4056L28.8206 21.3123L28.8213 21.2186L28.821 21.1252L28.8199 21.0319L28.8177 20.9389L28.8146 20.8457L28.8105 20.7527L28.8055 20.66L28.7995 20.5671L28.7926 20.4745L28.7848 20.3823L28.776 20.2899L28.7663 20.198L28.7556 20.106L28.744 20.0144L28.7315 19.9229L28.7181 19.8315L28.7037 19.7405L28.6884 19.6498L28.6722 19.5593L28.6551 19.469L28.637 19.3787L28.618 19.289L28.5982 19.1996L28.5775 19.1103L28.5558 19.0212L28.5333 18.9328L28.5098 18.8442L28.4856 18.7563L28.4604 18.6685L28.4343 18.5813L28.4074 18.4942L28.3796 18.4075L28.3509 18.3213L28.3215 18.2354L28.291 18.1497L28.2599 18.0646L28.2278 17.9798L28.1949 17.8955L28.1612 17.8115L28.1266 17.7278L28.0913 17.6448L28.055 17.562L28.018 17.4798L27.9802 17.3981L27.9416 17.3166L27.9021 17.2356L27.862 17.1553L27.8209 17.0752L27.7792 16.9959L27.7367 16.917L27.6933 16.8383L27.6493 16.7605L27.6044 16.683L27.5589 16.6061L27.5124 16.5295L27.4655 16.4538L27.4176 16.3783L27.3692 16.3036L27.3199 16.2294L27.27 16.1558L27.2192 16.0826L27.1679 16.0101L27.116 15.9382L27.0631 15.8667L27.0098 15.796L26.9556 15.7258L26.901 15.6564L26.8455 15.5873L26.7894 15.519L26.7327 15.4513L26.6753 15.3841L26.6175 15.3178L26.5587 15.2519L26.4996 15.1868L26.4397 15.1222L26.3795 15.0585L26.3183 14.9952L26.2568 14.9328L26.1945 14.8707L26.1317 14.8096L26.0685 14.7492L26.0047 14.6894L25.9402 14.6302L25.8752 14.5719L25.8097 14.5142L25.7435 14.457L25.6773 14.401L25.6101 14.3452L25.5426 14.2904L25.4745 14.2363L25.406 14.1827L25.337 14.1301L25.2677 14.0783L25.1976 14.027L25.1271 13.9764L25.0565 13.9269L24.9849 13.8778L24.9135 13.8298L24.8414 13.7823L24.7689 13.7356L24.6958 13.6896L24.6227 13.6446L24.5488 13.6001L24.4748 13.5566L24.4001 13.5137L24.3256 13.4718L24.2504 13.4305L24.1748 13.39L24.0989 13.3503L24.0228 13.3115L23.9463 13.2733L23.8693 13.236L23.7923 13.1995L23.7151 13.1639L23.637 13.1288L23.5593 13.0948L23.4811 13.0615L23.4025 13.029L23.3237 12.9973L23.2449 12.9665L23.1657 12.9365L23.086 12.9072L23.0066 12.8789L22.9266 12.8512L22.8465 12.8244L22.7664 12.7985L22.686 12.7734L22.6055 12.7491L22.5244 12.7255L22.4436 12.7029L22.3626 12.6811L22.2814 12.6601L22.2002 12.6398L22.1185 12.6205L22.037 12.6019L21.9555 12.5843L21.8737 12.5674L21.7917 12.5512L21.7101 12.5361L21.6279 12.5217L21.546 12.5081L21.4637 12.4953L21.3818 12.4834L21.2993 12.4722L21.2174 12.462L21.1351 12.4525L21.0529 12.4439L20.9708 12.4361L20.8884 12.429L20.8065 12.4229L20.7241 12.4175L20.642 12.413L20.5602 12.4093L20.4777 12.4063L20.396 12.4042L20.3141 12.403L20.2324 12.4025L20.1765 12.4027L20.2188 15.9894L20.2441 15.9894L20.2911 15.9901L20.3382 15.9913L20.3854 15.9928L20.4326 15.995L20.4798 15.9975L20.5271 16.0006L20.5745 16.0042L20.6218 16.0083L20.6693 16.0128L20.7168 16.0179L20.7642 16.0234L20.8118 16.0294L20.8593 16.036L20.9068 16.043L20.9544 16.0506L21.0019 16.0587L21.0494 16.0673L21.0969 16.0764L21.1444 16.0859L21.1919 16.096L21.2393 16.1066L21.2868 16.1177L21.3341 16.1293L21.3814 16.1414L21.4287 16.154L21.4759 16.1671L21.5231 16.1807L21.5702 16.1948L21.6171 16.2095L21.664 16.2247L21.7109 16.2403L21.7576 16.2565L21.8043 16.2731L21.8509 16.2903L21.8973 16.308L21.9436 16.3261L21.9898 16.3448L22.0359 16.364L22.0818 16.3837L22.1277 16.4039L22.1733 16.4246L22.2189 16.4458L22.2643 16.4676L22.3095 16.4897L22.3546 16.5124L22.3994 16.5357L22.4441 16.5594L22.4886 16.5836L22.533 16.6083L22.5771 16.6335L22.6211 16.6591L22.6647 16.6852L22.7083 16.7119L22.7516 16.7391L22.7947 16.7667L22.8375 16.7948L22.8802 16.8234L22.9226 16.8525L22.9648 16.8821L23.0067 16.9121L23.0483 16.9426L23.0897 16.9736L23.1309 17.005L23.1717 17.0369L23.2123 17.0693L23.2526 17.1022L23.2926 17.1354L23.3324 17.1693L23.3718 17.2035L23.4109 17.2381L23.4497 17.2733L23.4882 17.3089L23.5264 17.3449L23.5642 17.3814L23.6018 17.4183L23.6389 17.4557L23.6758 17.4935L23.7123 17.5317L23.7484 17.5703L23.7843 17.6095L23.8197 17.649L23.8548 17.6889L23.8895 17.7293L23.9238 17.77L23.9578 17.8112L23.9913 17.8528L24.0245 17.8948L24.0573 17.9371L24.0897 17.98L24.1217 18.0231L24.1533 18.0667L24.1843 18.1106L24.2151 18.155L24.2454 18.1997L24.2753 18.2448L24.3047 18.2903L24.3338 18.3361L24.3623 18.3823L24.3905 18.4289L24.4181 18.4758L24.4453 18.523L24.4721 18.5706L24.4984 18.6186L24.5242 18.6668L24.5496 18.7155L24.5745 18.7644L24.5989 18.8136L24.6228 18.8632L24.6462 18.9132L24.6691 18.9633L24.6915 19.0139L24.7135 19.0647L24.7349 19.1158L24.7559 19.1672L24.7762 19.2189L24.7961 19.2708L24.8156 19.3231L24.8344 19.3756L24.8527 19.4284L24.8705 19.4815L24.8877 19.5348L24.9044 19.5883L24.9206 19.6421L24.9363 19.6962L24.9513 19.7505L24.9659 19.8049L24.9799 19.8597L24.9933 19.9147L25.0062 19.9699L25.0185 20.0251L25.0302 20.0808L25.0414 20.1366L25.0519 20.1924L25.062 20.2487L25.0714 20.305L25.0803 20.3614L25.0886 20.4182L25.0963 20.475L25.1034 20.532L25.1099 20.5892L25.1159 20.6464L25.1212 20.7038L25.1259 20.7614L25.1301 20.8192L25.1336 20.8769L25.1365 20.9349L25.1388 20.9929L25.1406 21.0511L25.1416 21.1093L25.1422 21.1676L25.142 21.2259L25.1414 21.2845L25.14 21.3431L25.138 21.4017L25.1355 21.4604L25.1323 21.5191L25.1285 21.5779L25.124 21.6367L25.1189 21.6956L25.1132 21.7545L25.107 21.8134L25.1 21.8723L25.0924 21.9313L25.0842 21.9903L25.0754 22.0492L25.0659 22.1081L25.0558 22.167L25.0451 22.2259L25.0337 22.2848L25.0218 22.3436L25.0091 22.4024L24.9958 22.4611L24.982 22.5198L24.9674 22.5785L24.9523 22.6371L24.9365 22.6955L24.9201 22.7539L24.903 22.8122L24.8853 22.8704L24.867 22.9285L24.8481 22.9865L24.8284 23.0444L24.8083 23.1022L24.7873 23.1598L24.7658 23.2173L24.7437 23.2746L24.721 23.3319L24.6976 23.3889L24.6736 23.4458L24.649 23.5025L24.6237 23.5591L24.5979 23.6155L24.5713 23.6716L24.5441 23.7277L24.5165 23.7834L24.4881 23.839L24.4591 23.8944L24.4294 23.9495L24.3992 24.0044L24.3684 24.0591L24.3369 24.1136L24.3048 24.1678L24.2722 24.2217L24.2389 24.2754L24.2051 24.3288L24.1706 24.3819L24.1354 24.4349L24.0998 24.4874L24.0635 24.5397L24.0267 24.5917L23.9892 24.6434L23.9512 24.6948L23.9125 24.7458L23.8733 24.7965L23.8335 24.847L23.7932 24.897L23.7522 24.9467L23.7107 24.9961L23.6687 25.0451L23.6259 25.0938L23.5827 25.142L23.539 25.19L23.4946 25.2375L23.4498 25.2846L23.4044 25.3315L23.3584 25.3778L23.3119 25.4237L23.2649 25.4693L23.2173 25.5144L23.1691 25.5591L23.1205 25.6034L23.0714 25.6472L23.0217 25.6907L22.9715 25.7336L22.9208 25.7761L22.8696 25.8181L22.8178 25.8598L22.7656 25.9008L22.713 25.9415L22.6598 25.9816L22.6061 26.0214L22.552 26.0605L22.4973 26.0992L22.4423 26.1374L22.3867 26.1751L22.3307 26.2123L22.2742 26.2489L22.2173 26.2851L22.1599 26.3207L22.1021 26.3558L22.0438 26.3902L21.9852 26.4242L21.9261 26.4577L21.8665 26.4906L21.8066 26.523L21.7463 26.5547L21.6855 26.5859L21.6243 26.6165L21.5629 26.6466L21.5009 26.6761L21.4386 26.705L21.3759 26.7333L21.3129 26.7609L21.2495 26.7881L21.1857 26.8146L21.1216 26.8404L21.0571 26.8657L20.9923 26.8904L20.9271 26.9144L20.8616 26.9379L20.7959 26.9607L20.7297 26.9828L20.6633 27.0044L20.5966 27.0252L20.5297 27.0455L20.4623 27.0651L20.3948 27.084L20.3269 27.1024L20.2588 27.1199L20.1904 27.1369L20.1217 27.1532L20.0529 27.1689L19.9837 27.1838L19.9143 27.1981L19.8447 27.2117L19.7749 27.2246L19.7049 27.2369L19.6346 27.2485L19.5642 27.2593L19.4935 27.2695L19.4228 27.279L19.3517 27.2878L19.2806 27.2959L19.2092 27.3032L19.1377 27.3099L19.0661 27.3158L18.9943 27.3211L18.9223 27.3256L18.8503 27.3295L18.7781 27.3326L18.7058 27.335L18.6333 27.3366L18.5608 27.3376L18.4883 27.3379L18.4156 27.3374L18.3429 27.3362L18.27 27.3342L18.1971 27.3315L18.1242 27.3281L18.0512 27.3239L17.9781 27.3191L17.9051 27.3134L17.832 27.3071L17.7589 27.3L17.6859 27.2922L17.6127 27.2835L17.5397 27.2742L17.4665 27.2641L17.3935 27.2534L17.3205 27.2418L17.2475 27.2296L17.1746 27.2165L17.1017 27.2028L17.0289 27.1883L16.9561 27.173L16.8834 27.1571L16.8109 27.1403L16.7384 27.1228L16.6659 27.1046L16.5936 27.0856L16.5215 27.0659L16.4494 27.0455L16.3776 27.0243L16.3058 27.0023L16.2342 26.9796L16.1628 26.9562L16.0914 26.9321L16.0204 26.9072L15.9494 26.8816L15.8787 26.8552L15.8082 26.8281L15.7378 26.8003L15.6677 26.7717L15.5978 26.7424L15.5281 26.7124L15.4587 26.6816L15.3894 26.6502L15.3206 26.618L15.2518 26.585L15.1834 26.5514L15.1153 26.517L15.0474 26.4819L14.9799 26.4461L14.9126 26.4096L14.8456 26.3724L14.779 26.3345L14.7126 26.2958L14.6467 26.2565L14.581 26.2165L14.5158 26.1757L14.4508 26.1343L14.3862 26.0922L14.3219 26.0494L14.2581 26.0059L14.1947 25.9617L14.1316 25.9169L14.0689 25.8713L14.0067 25.8251L13.9448 25.7782L13.8834 25.7307L13.8224 25.6825L13.7619 25.6337L13.7017 25.5842L13.642 25.534L13.5828 25.4832L13.5241 25.4317L13.4658 25.3796L13.408 25.3269L13.3507 25.2735L13.2939 25.2196L13.2376 25.1649L13.1817 25.1097L13.1265 25.0539L13.0717 24.9974L13.0174 24.9403L12.9637 24.8828L12.9105 24.8244L12.858 24.7656L12.8059 24.7063L12.7544 24.6462L12.7035 24.5857L12.6531 24.5245L12.6033 24.4628L12.5541 24.4006L12.5055 24.3378L12.4575 24.2744L12.4101 24.2105L12.3634 24.1461L12.3173 24.0811L12.2717 24.0155L12.2268 23.9495L12.1826 23.883L12.139 23.8159L12.0961 23.7484L12.0537 23.6804L12.0122 23.6119L11.9711 23.5428L11.9309 23.4734L11.8913 23.4033L11.8523 23.333L11.8141 23.2621L11.7765 23.1907L11.7397 23.1189L11.7035 23.0467L11.6681 22.9741L11.6334 22.901L11.5994 22.8275L11.5661 22.7536L11.5336 22.6793L11.5018 22.6046L11.4707 22.5295L11.4404 22.454L11.4109 22.3782L11.3821 22.3019L11.3541 22.2253L11.3268 22.1484L11.3003 22.0712L11.2745 21.9935L11.2496 21.9156L11.2255 21.8373L11.2021 21.7587L11.1794 21.6798L11.1576 21.6005L11.1367 21.521L11.1164 21.4412L11.0971 21.3611L11.0785 21.2809L11.0607 21.2002L11.0438 21.1194L11.0277 21.0382L11.0123 20.9569L10.9978 20.8753L10.9842 20.7935L10.9714 20.7115L10.9593 20.6292L10.9482 20.5469L10.9379 20.4642L10.9285 20.3815L10.9198 20.2985L10.9121 20.2153L10.9052 20.132L10.8991 20.0486L10.8939 19.965L10.8895 19.8813L10.886 19.7975L10.8834 19.7135L10.8817 19.6295L10.8808 19.5454L10.8807 19.4611L10.8816 19.3768L10.8834 19.2924L10.8859 19.208L10.8894 19.1234L10.8938 19.0389L10.899 18.9543L10.9051 18.8697L10.9121 18.785L10.9199 18.7004L10.9287 18.6157L10.9383 18.5311L10.9488 18.4464L10.9602 18.3619L10.9725 18.2773L10.9857 18.1928L10.9998 18.1083L11.0147 18.0239L11.0305 17.9395L11.0473 17.8552L11.0649 17.7711L11.0834 17.687L11.1027 17.603L11.123 17.5192L11.1441 17.4354L11.1662 17.3518L11.1891 17.2684L11.2129 17.1851L11.2375 17.1019L11.2631 17.019L11.2895 16.9361L11.3168 16.8535L11.345 16.7711L11.3741 16.6888L11.404 16.6069L11.4348 16.5251L11.4666 16.4436L11.4992 16.3622L11.5326 16.2811L11.5669 16.2003L11.602 16.1198L11.6381 16.0395L11.675 15.9595L11.7128 15.8798L11.7513 15.8005L11.7909 15.7214L11.8311 15.6426L11.8723 15.5642L11.9143 15.4861L11.9572 15.4084L12.0009 15.331L12.0454 15.254L12.0908 15.1774L12.137 15.1011L12.184 15.0252L12.2319 14.9498L12.2806 14.8746L12.3301 14.8L12.3804 14.7258L12.4316 14.6519L12.4835 14.5786L12.5362 14.5057L12.5898 14.4333L12.6441 14.3612L12.6992 14.2898L12.7551 14.2187L12.8118 14.1483L12.8693 14.0781L12.9275 14.0087L12.9865 13.9396L13.0463 13.8711L13.1068 13.8032L13.1681 13.7358L13.2302 13.669L13.293 13.6027L13.3566 13.5369L13.4208 13.4718L13.4858 13.4072L13.5515 13.3431L13.6179 13.2798L13.6851 13.217L13.7529 13.1547L13.8214 13.0932L13.8907 13.0322L13.9607 12.972L14.0313 12.9122L14.1026 12.8532L14.1745 12.7949L14.2472 12.7371L14.3204 12.6801L14.3944 12.6238L14.469 12.5681L14.5442 12.5131L14.6201 12.4589L14.6965 12.4053L14.7736 12.3524L14.8514 12.3002L14.9297 12.2488L15.0086 12.1982L15.0882 12.1482L15.1682 12.099L15.2489 12.0506L15.3301 12.0029L15.412 11.9559L15.4943 11.9098L15.5772 11.8644L15.6607 11.8198L15.7446 11.776L15.8291 11.733L15.9141 11.6908L15.9996 11.6494L16.0857 11.6088L16.1721 11.569L16.2591 11.5301L16.3466 11.492L16.4346 11.4546L16.523 11.4181L16.6117 11.3826L16.7011 11.3478L16.7908 11.3139L16.8809 11.2809L16.9714 11.2488L17.0625 11.2174L17.1538 11.187L17.2456 11.1575L17.3377 11.1288L17.4303 11.101L17.5231 11.0741L17.6163 11.0482L17.7099 11.0231L17.8038 10.9989L17.8981 10.9756L17.9926 10.9533L18.0875 10.9319L18.1827 10.9114L18.2781 10.8918L18.3738 10.8732L18.4219 10.8643ZM19.5984 17.7616L18.5065 18.0232L18.4423 12.5992L18.3909 12.6108L18.3134 12.6291L18.236 12.6482L18.1592 12.668L18.0824 12.6885L18.0062 12.7098L17.9299 12.7319L17.8544 12.7545L17.7787 12.7781L17.7039 12.8021L17.629 12.8271L17.5545 12.8527L17.4805 12.8791L17.4067 12.906L17.3335 12.9337L17.2605 12.9622L17.1878 12.9913L17.1156 13.021L17.0435 13.0516L16.9724 13.0825L16.9012 13.1145L16.8308 13.1469L16.7604 13.1801L16.6906 13.2138L16.6211 13.2483L16.5523 13.2834L16.4838 13.3191L16.4158 13.3555L16.3483 13.3924L16.2811 13.4301L16.2144 13.4683L16.1485 13.5071L16.0824 13.5467L16.0173 13.5867L15.9526 13.6274L15.8884 13.6686L15.8246 13.7105L15.7614 13.753L15.6987 13.796L15.6364 13.8395L15.5748 13.8836L15.5135 13.9283L15.4529 13.9736L15.3928 14.0194L15.3333 14.0658L15.2743 14.1125L15.216 14.1599L15.158 14.2079L15.1006 14.2565L15.0439 14.3053L14.9877 14.3548L14.9321 14.4047L14.8771 14.4551L14.8226 14.5061L14.7688 14.5575L14.7156 14.6093L14.6628 14.6617L14.6108 14.7145L14.5593 14.7677L14.5086 14.8213L14.4582 14.8757L14.4086 14.9301L14.3596 14.9851L14.3112 15.0406L14.2636 15.0963L14.2164 15.1526L14.1701 15.209L14.1241 15.2662L14.079 15.3235L14.0344 15.3814L13.9905 15.4396L13.9473 15.498L13.9047 15.5568L13.8628 15.616L13.8215 15.6757L13.7809 15.7355L13.741 15.7958L13.7018 15.8563L13.6632 15.9171L13.6252 15.9783L13.5881 16.0397L13.5514 16.1016L13.5156 16.1635L13.4804 16.2259L13.4458 16.2885L13.4121 16.3513L13.3789 16.4144L13.3465 16.4777L13.3147 16.5415L13.2837 16.6051L13.2533 16.6694L13.2237 16.7336L13.1948 16.7981L13.1664 16.8628L13.1389 16.9278L13.1121 16.9927L13.0859 17.0581L13.0605 17.1236L13.0357 17.1892L13.0117 17.2549L12.9884 17.3209L12.9658 17.387L12.9439 17.4532L12.9227 17.5195L12.9022 17.5861L12.8824 17.6527L12.8635 17.7193L12.8451 17.7862L12.8274 17.8532L12.8105 17.9201L12.7943 17.9872L12.7788 18.0544L12.764 18.1216L12.75 18.189L12.7366 18.2562L12.7239 18.3236L12.712 18.3911L12.7008 18.4585L12.6903 18.5259L12.6804 18.5936L12.6713 18.6609L12.663 18.7286L12.6553 18.7959L12.6483 18.8635L12.6421 18.9311L12.6365 18.9985L12.6316 19.0659L12.6275 19.1334L12.624 19.2006L12.6212 19.2679L12.6191 19.3351L12.6178 19.4023L12.6171 19.4694L12.6171 19.5364L12.6178 19.6033L12.6192 19.6701L12.6213 19.7368L12.6241 19.8034L12.6275 19.8699L12.6316 19.9362L12.6365 20.0024L12.642 20.0686L12.6481 20.1345L12.6549 20.2004L12.6624 20.2659L12.6706 20.3315L12.6794 20.3967L12.689 20.462L12.6991 20.5268L12.7099 20.5916L12.7214 20.6563L12.7335 20.7206L12.7463 20.7849L12.7596 20.8487L12.7737 20.9125L12.7884 20.976L12.8038 21.0394L12.8197 21.1023L12.8364 21.1652L12.8535 21.2277L12.8713 21.2901L12.8898 21.352L12.9088 21.4139L12.9285 21.4753L12.9488 21.5364L12.9698 21.5975L12.9913 21.6581L13.0133 21.7183L13.036 21.7785L13.0593 21.8382L13.0832 21.8976L13.1076 21.9567L13.1325 22.0154L13.1582 22.0739L13.1843 22.1321L13.2111 22.1898L13.2383 22.2472L13.2661 22.3042L13.2946 22.3611L13.3234 22.4173L13.3529 22.4733L13.3829 22.529L13.4135 22.5842L13.4446 22.6391L13.4761 22.6936L13.5082 22.7476L13.5409 22.8013L13.574 22.8546L13.6076 22.9074L13.6418 22.96L13.6764 23.012L13.7115 23.0638L13.7471 23.1148L13.7832 23.1658L13.8197 23.2161L13.8567 23.266L13.8943 23.3156L13.9322 23.3646L13.9706 23.4131L14.0094 23.4613L14.0487 23.5091L14.0883 23.5562L14.1286 23.603L14.1691 23.6494L14.2101 23.6952L14.2516 23.7406L14.2933 23.7853L14.3356 23.8299L14.3782 23.8738L14.4211 23.9172L14.4646 23.9601L14.5084 24.0026L14.5525 24.0446L14.5971 24.086L14.642 24.127L14.6872 24.1674L14.7328 24.2073L14.7788 24.2468L14.825 24.2857L14.8716 24.3241L14.9186 24.362L14.966 24.3993L15.0134 24.4361L15.0614 24.4724L15.1096 24.5082L15.1581 24.5434L15.2069 24.5781L15.2559 24.6123L15.3053 24.6459L15.3549 24.679L15.4048 24.7115L15.4549 24.7435L15.5055 24.775L15.5561 24.8058L15.6069 24.8362L15.6582 24.8661L15.7095 24.8952L15.761 24.9239L15.813 24.9521L15.865 24.9797L15.9172 25.0067L15.9696 25.0331L16.0224 25.059L16.075 25.0843L16.1282 25.1091L16.1813 25.1333L16.2346 25.1569L16.2882 25.1799L16.3419 25.2025L16.3956 25.2244L16.4496 25.2458L16.5037 25.2665L16.5581 25.2867L16.6123 25.3064L16.667 25.3255L16.7214 25.3439L16.7761 25.3619L16.8309 25.3792L16.8859 25.3961L16.9408 25.4122L16.9959 25.4279L17.0511 25.4429L17.1063 25.4574L17.1616 25.4713L17.2169 25.4847L17.2722 25.4974L17.3277 25.5096L17.3832 25.5213L17.4387 25.5323L17.4942 25.5428L17.5497 25.5527L17.6053 25.5621L17.6609 25.5709L17.7165 25.5791L17.772 25.5867L17.8276 25.5938L17.8831 25.6003L17.9387 25.6063L17.9942 25.6116L18.0497 25.6165L18.1052 25.6207L18.1605 25.6244L18.2159 25.6276L18.2711 25.6301L18.3263 25.6322L18.3816 25.6337L18.4365 25.6346L18.4915 25.635L18.5464 25.6348L18.6012 25.6341L18.6561 25.6328L18.7107 25.631L18.7651 25.6287L18.8195 25.6258L18.8739 25.6224L18.9279 25.6184L18.982 25.6139L19.0359 25.6089L19.0897 25.6034L19.1433 25.5972L19.1966 25.5906L19.2501 25.5835L19.3031 25.5758L19.356 25.5676L19.4089 25.559L19.4615 25.5498L19.5139 25.5401L19.5662 25.5298L19.6183 25.5191L19.67 25.5079L19.7216 25.4962L19.7731 25.4839L19.8243 25.4712L19.8753 25.4581L19.9261 25.4444L19.9766 25.4303L20.0271 25.4155L20.0771 25.4004L20.1267 25.3849L20.1766 25.3687L20.2258 25.3522L20.2749 25.3353L20.3237 25.3178L20.3722 25.2998L20.4206 25.2814L20.4687 25.2626L20.5163 25.2433L20.5638 25.2236L20.6109 25.2034L20.6579 25.1828L20.7044 25.1618L20.7508 25.1403L20.7967 25.1185L20.8423 25.0961L20.8878 25.0734L20.9327 25.0504L20.9775 25.0268L21.0219 25.0028L21.066 24.9784L21.1096 24.9537L21.1531 24.9286L21.1962 24.903L21.2389 24.8771L21.2812 24.8508L21.3233 24.8241L21.365 24.7971L21.4064 24.7696L21.4473 24.7419L21.4879 24.7137L21.5282 24.6852L21.568 24.6564L21.6075 24.6271L21.6466 24.5976L21.6854 24.5677L21.7237 24.5375L21.7618 24.5069L21.7993 24.4761L21.8366 24.4449L21.8733 24.4134L21.9097 24.3816L21.9458 24.3495L21.9814 24.317L22.0167 24.2843L22.0513 24.2513L22.0858 24.218L22.1198 24.1843L22.1535 24.1505L22.1866 24.1164L22.2193 24.0819L22.2516 24.0473L22.2836 24.0123L22.315 23.9772L22.3461 23.9417L22.3767 23.906L22.4069 23.8702L22.4368 23.8339L22.466 23.7976L22.495 23.7609L22.5235 23.7242L22.5514 23.6871L22.5791 23.6498L22.6062 23.6124L22.6329 23.5746L22.6593 23.5367L22.685 23.4988L22.7104 23.4604L22.7354 23.4221L22.7598 23.3835L22.7838 23.3447L22.8074 23.3058L22.8305 23.2666L22.8533 23.2274L22.8754 23.188L22.8972 23.1485L22.9185 23.1087L22.9394 23.0689L22.9598 23.0289L22.9797 22.9889L22.9993 22.9487L23.0183 22.9082L23.0369 22.8678L23.055 22.8273L23.0726 22.7867L23.0898 22.7458L23.1065 22.7051L23.1229 22.664L23.1386 22.6232L23.1541 22.5818L23.1688 22.541L23.1833 22.4996L23.1974 22.4582L23.2108 22.417L23.2239 22.3755L23.2365 22.3342L23.2487 22.2924L23.2603 22.2512L23.2716 22.2093L23.2823 22.1681L23.2927 22.1263L23.3025 22.0845L23.3119 22.0429L23.3208 22.0015L23.3293 21.9595L23.3374 21.918L23.345 21.8761L23.3521 21.8347L23.3588 21.7931L23.365 21.7514L23.3708 21.7097L23.3761 21.6681L23.3811 21.6267L23.3855 21.5853L23.3895 21.5436L23.3931 21.5023L23.3962 21.4609L23.3989 21.4196L23.4011 21.3783L23.4029 21.3372L23.4043 21.2962L23.4052 21.255L23.4058 21.2139L23.4059 21.1731L23.4055 21.1324L23.4047 21.0917L23.4035 21.0511L23.4019 21.0104L23.3998 20.9704L23.3973 20.9295L23.3945 20.8897L23.3912 20.8497L23.3875 20.8095L23.3833 20.7697L23.3789 20.7302L23.3739 20.6902L23.3685 20.6511L23.3628 20.6117L23.3567 20.5728L23.3501 20.5336L23.3432 20.4946L23.3359 20.4561L23.3282 20.4176L23.32 20.379L23.3115 20.3409L23.3027 20.3028L23.2934 20.265L23.2839 20.2275L23.2737 20.1897L23.2635 20.1526L23.2527 20.1152L23.2416 20.0784L23.2301 20.0417L23.2183 20.0052L23.2061 19.9688L23.1935 19.9325L23.1807 19.8968L23.1674 19.8612L23.1538 19.8255L23.1399 19.7903L23.1255 19.755L23.1111 19.7205L23.096 19.6856L23.0808 19.6513L23.0652 19.6173L23.0493 19.5833L23.0331 19.5497L23.0165 19.5162L22.9996 19.483L22.9825 19.4501L22.965 19.4174L22.9473 19.385L22.9292 19.3528L22.9107 19.3209L22.8921 19.2893L22.8732 19.2579L22.8538 19.2267L22.8343 19.196L22.8145 19.1654L22.7944 19.1351L22.7741 19.105L22.7535 19.0753L22.7326 19.0458L22.7115 19.0166L22.69 18.9877L22.6683 18.9592L22.6466 18.9308L22.6243 18.9027L22.6019 18.8751L22.5793 18.8476L22.5565 18.8204L22.5333 18.7936L22.5101 18.7671L22.4865 18.7408L22.4628 18.7149L22.4388 18.6892L22.4146 18.6639L22.3902 18.6389L22.3656 18.6141L22.3408 18.5898L22.3158 18.5658L22.2907 18.542L22.2651 18.5184L22.2398 18.4954L22.214 18.4725L22.1881 18.45L22.162 18.4278L22.1357 18.4061L22.1093 18.3845L22.0828 18.3633L22.0561 18.3424L22.0292 18.3218L22.0022 18.3017L21.975 18.2817L21.9476 18.2621L21.9202 18.2429L21.8926 18.2239L21.865 18.2054L21.8371 18.1872L21.8091 18.1692L21.7811 18.1516L21.7528 18.1344L21.7246 18.1174L21.6963 18.1009L21.6677 18.0847L21.639 18.0687L21.6104 18.0531L21.5817 18.0378L21.5528 18.0229L21.524 18.0084L21.4948 17.994L21.4659 17.9802L21.4367 17.9667L21.4075 17.9534L21.3782 17.9405L21.3488 17.9278L21.3196 17.9157L21.29 17.9038L21.2605 17.8922L21.231 17.881L21.2014 17.8701L21.1719 17.8595L21.1422 17.8493L21.1126 17.8393L21.083 17.8298L21.0533 17.8205L21.0235 17.8116L20.994 17.803L20.964 17.7947L20.9345 17.7868L20.9047 17.7792L20.875 17.7719L20.8452 17.765L20.8156 17.7584L20.7858 17.7521L20.7562 17.7461L20.7266 17.7404L20.6971 17.7351L20.6673 17.73L20.6379 17.7254L20.6082 17.721L20.5789 17.7169L20.5494 17.7131L20.52 17.7097L20.4908 17.7066L20.4615 17.7038L20.4323 17.7013L20.4031 17.6991L20.374 17.6972L20.3449 17.6956L20.3159 17.6943L20.2872 17.6934L20.2583 17.6926L20.2296 17.6922L20.2009 17.6921L20.1724 17.6924L20.1439 17.6929L20.1156 17.6937L20.0872 17.6948L20.0592 17.6961L20.031 17.6978L20.0031 17.6997L19.9753 17.7019L19.9475 17.7045L19.9199 17.7072L19.8923 17.7103L19.865 17.7136L19.8377 17.7172L19.8106 17.7211L19.7835 17.7253L19.7567 17.7297L19.7299 17.7343L19.7035 17.7393L19.6768 17.7445L19.6506 17.7499L19.6244 17.7556L19.5984 17.7616Z" fill="white"/>
<path d="M60.8048 16.3426L55.8143 31.7987H50.9697L46 16.3426H50.6258L52.6991 24.1764C52.7755 24.4724 52.8624 24.853 52.9596 25.3181C53.0638 25.7762 53.1575 26.2343 53.2409 26.6925C53.3312 27.1506 53.3868 27.5241 53.4076 27.8131C53.4354 27.5241 53.4875 27.1541 53.5639 26.703C53.6403 26.252 53.7236 25.8009 53.8139 25.3498C53.9112 24.8917 54.0015 24.5147 54.0848 24.2186L56.1998 16.3426H60.8048Z" fill="white"/>
<path d="M69.1813 31.7987H65.066V19.7573H61.3465V16.3426H72.8903V19.7573H69.1813V31.7987Z" fill="white"/>
<path d="M84.1389 27.1048C84.1389 27.9435 83.9305 28.7399 83.5137 29.494C83.097 30.2411 82.4476 30.8472 81.5655 31.3123C80.6903 31.7775 79.5582 32.0101 78.169 32.0101C77.4745 32.0101 76.8632 31.9784 76.3354 31.9149C75.8144 31.8515 75.3282 31.7493 74.8768 31.6084C74.4253 31.4604 73.9565 31.2701 73.4703 31.0375V27.3162C74.2968 27.7391 75.1303 28.0633 75.9707 28.2888C76.8111 28.5073 77.5717 28.6165 78.2524 28.6165C78.6622 28.6165 78.9956 28.5672 79.2526 28.4685C79.5165 28.3699 79.711 28.2359 79.836 28.0668C79.961 27.8906 80.0235 27.6897 80.0235 27.4642C80.0235 27.1964 79.9298 26.9708 79.7422 26.7876C79.5616 26.5973 79.2699 26.4 78.8671 26.1956C78.4642 25.9912 77.9329 25.7375 77.273 25.4344C76.7104 25.1666 76.1999 24.8917 75.7415 24.6098C75.29 24.3279 74.9011 24.0072 74.5746 23.6478C74.2551 23.2813 74.0086 22.8549 73.8349 22.3686C73.6613 21.8823 73.5744 21.3079 73.5744 20.6454C73.5744 19.6516 73.8141 18.82 74.2933 18.1504C74.7795 17.4738 75.4533 16.9664 76.3145 16.6281C77.1827 16.2898 78.1829 16.1206 79.3151 16.1206C80.3083 16.1206 81.2008 16.2334 81.9926 16.4589C82.7914 16.6844 83.5068 16.9417 84.1389 17.2307L82.8782 20.4551C82.2253 20.152 81.5828 19.9124 80.9508 19.7362C80.3187 19.5529 79.7318 19.4613 79.19 19.4613C78.8358 19.4613 78.5441 19.5071 78.3149 19.5988C78.0926 19.6833 77.9259 19.7996 77.8148 19.9476C77.7106 20.0956 77.6585 20.2648 77.6585 20.4551C77.6585 20.6947 77.7488 20.9097 77.9294 21.1C78.1169 21.2902 78.426 21.4982 78.8567 21.7237C79.2942 21.9422 79.8881 22.2276 80.6382 22.58C81.3814 22.9183 82.0135 23.2848 82.5344 23.6795C83.0553 24.0671 83.4512 24.5358 83.7221 25.0855C83.9999 25.6282 84.1389 26.3013 84.1389 27.1048Z" fill="white"/>
<path d="M104.202 31.7987H100.065V25.4978H95.2832V31.7987H91.1471V24.0706V16.3426H95.2832V22.0726H100.065V16.3426H104.202V31.7987Z" fill="white"/>
<path d="M117.648 25.7833C117.648 26.7841 117.513 27.6721 117.242 28.4474C116.971 29.2226 116.579 29.8746 116.065 30.4032C115.551 30.9318 114.929 31.3335 114.2 31.6084C113.471 31.8762 112.648 32.0101 111.731 32.0101C110.876 32.0101 110.091 31.8762 109.376 31.6084C108.668 31.3335 108.049 30.9318 107.522 30.4032C106.994 29.8746 106.584 29.2226 106.292 28.4474C106.007 27.6721 105.865 26.7841 105.865 25.7833C105.865 24.4583 106.101 23.3377 106.573 22.4214C107.053 21.5052 107.733 20.8075 108.616 20.3282C109.505 19.849 110.564 19.6093 111.793 19.6093C112.925 19.6093 113.932 19.849 114.815 20.3282C115.697 20.8075 116.388 21.5052 116.888 22.4214C117.395 23.3377 117.648 24.4583 117.648 25.7833ZM110.001 25.7833C110.001 26.4669 110.06 27.0449 110.178 27.5171C110.296 27.9822 110.484 28.3381 110.741 28.5848C111.005 28.8244 111.349 28.9443 111.772 28.9443C112.196 28.9443 112.533 28.8244 112.783 28.5848C113.033 28.3381 113.214 27.9822 113.325 27.5171C113.443 27.0449 113.502 26.4669 113.502 25.7833C113.502 25.0996 113.443 24.5288 113.325 24.0706C113.214 23.6125 113.03 23.2672 112.773 23.0346C112.522 22.802 112.182 22.6857 111.752 22.6857C111.133 22.6857 110.685 22.9465 110.408 23.468C110.137 23.9896 110.001 24.7613 110.001 25.7833Z" fill="white"/>
<path d="M123.167 31.7987H119.093V23.5738V15.3489H123.167V31.7987Z" fill="white"/>
<path d="M129.658 32.0101C128.442 32.0101 127.442 31.485 126.657 30.4349C125.872 29.3848 125.48 27.8483 125.48 25.8256C125.48 23.7817 125.883 22.2347 126.688 21.1845C127.494 20.1344 128.536 19.6093 129.814 19.6093C130.342 19.6093 130.797 19.6868 131.179 19.8419C131.561 19.997 131.891 20.2084 132.168 20.4762C132.453 20.737 132.7 21.033 132.908 21.3642H132.991C132.943 21.0612 132.898 20.6454 132.856 20.1168C132.814 19.5811 132.794 19.0596 132.794 18.5521V15.3489H136.898V31.7987H133.825L132.95 30.2869H132.794C132.606 30.604 132.37 30.893 132.085 31.1538C131.807 31.4145 131.467 31.6225 131.064 31.7775C130.668 31.9326 130.199 32.0101 129.658 32.0101ZM131.325 28.7434C131.977 28.7434 132.436 28.5355 132.7 28.1197C132.971 27.6968 133.116 27.0554 133.137 26.1956V25.8679C133.137 24.9234 133.005 24.201 132.741 23.7006C132.484 23.1932 131.998 22.9395 131.283 22.9395C130.797 22.9395 130.394 23.1791 130.074 23.6583C129.755 24.1376 129.595 24.8811 129.595 25.889C129.595 26.8827 129.755 27.6087 130.074 28.0668C130.401 28.5179 130.817 28.7434 131.325 28.7434Z" fill="white"/>
<path d="M142.927 19.8208V31.7987H138.854V19.8208H142.927ZM140.906 15C141.49 15 141.997 15.1233 142.427 15.37C142.865 15.6167 143.084 16.1065 143.084 16.8395C143.084 17.5513 142.865 18.0341 142.427 18.2878C141.997 18.5345 141.49 18.6579 140.906 18.6579C140.309 18.6579 139.798 18.5345 139.375 18.2878C138.958 18.0341 138.749 17.5513 138.749 16.8395C138.749 16.1065 138.958 15.6167 139.375 15.37C139.798 15.1233 140.309 15 140.906 15Z" fill="white"/>
<path d="M152.269 19.6093C153.485 19.6093 154.478 19.9582 155.249 20.6559C156.02 21.3537 156.405 22.4708 156.405 24.0072V31.7987H152.332V25.2653C152.332 24.4688 152.217 23.8698 151.988 23.468C151.766 23.0593 151.405 22.8549 150.904 22.8549C150.133 22.8549 149.616 23.1756 149.352 23.8169C149.088 24.4512 148.956 25.3639 148.956 26.555V31.7987H144.883V19.8208H147.956L148.508 21.4065H148.664C148.914 21.0259 149.213 20.7017 149.56 20.4339C149.908 20.1661 150.307 19.9617 150.759 19.8208C151.21 19.6798 151.714 19.6093 152.269 19.6093Z" fill="white"/>
<path d="M162.32 37C160.646 37 159.354 36.7146 158.444 36.1437C157.541 35.5798 157.09 34.7658 157.09 33.7016C157.09 32.9897 157.308 32.4012 157.746 31.9361C158.184 31.4709 158.84 31.1362 159.715 30.9318C159.354 30.7767 159.038 30.5265 158.767 30.1812C158.503 29.8358 158.371 29.494 158.371 29.1557C158.371 28.7822 158.472 28.4544 158.673 28.1725C158.875 27.8835 159.295 27.5417 159.934 27.147C159.323 26.8722 158.84 26.4423 158.486 25.8573C158.138 25.2723 157.965 24.5605 157.965 23.7218C157.965 22.8549 158.159 22.1148 158.548 21.5017C158.944 20.8885 159.517 20.4198 160.267 20.0956C161.024 19.7714 161.945 19.6093 163.028 19.6093C163.174 19.6093 163.396 19.6234 163.695 19.6516C163.994 19.6728 164.296 19.7009 164.601 19.7362C164.907 19.7644 165.143 19.7926 165.31 19.8208H169.425V21.8188L167.81 22.4214C167.921 22.6258 168.005 22.8478 168.06 23.0875C168.116 23.3271 168.144 23.5808 168.144 23.8486C168.144 25.1384 167.696 26.1392 166.8 26.851C165.911 27.5629 164.581 27.9188 162.809 27.9188C162.372 27.9188 162.025 27.8906 161.768 27.8342C161.719 27.9258 161.681 28.0175 161.653 28.1091C161.632 28.1937 161.622 28.2747 161.622 28.3522C161.622 28.5143 161.715 28.6447 161.903 28.7434C162.097 28.835 162.33 28.8984 162.601 28.9337C162.879 28.9689 163.143 28.9865 163.393 28.9865H165.352C166.678 28.9865 167.671 29.2685 168.331 29.8323C168.991 30.3961 169.321 31.2454 169.321 32.3801C169.321 33.839 168.706 34.9737 167.477 35.7842C166.254 36.5947 164.535 37 162.32 37ZM162.518 34.4205C163.011 34.4205 163.507 34.3747 164.008 34.283C164.508 34.1985 164.928 34.0575 165.268 33.8602C165.608 33.6628 165.779 33.4021 165.779 33.0778C165.779 32.8312 165.678 32.6444 165.477 32.5175C165.275 32.3977 165.015 32.3167 164.695 32.2744C164.376 32.2321 164.039 32.211 163.685 32.211H162.101C161.809 32.211 161.542 32.2568 161.299 32.3484C161.063 32.4471 160.875 32.5774 160.736 32.7395C160.597 32.9016 160.528 33.0849 160.528 33.2893C160.528 33.6276 160.708 33.8989 161.069 34.1033C161.431 34.3148 161.913 34.4205 162.518 34.4205ZM163.07 25.5824C163.459 25.5824 163.757 25.4309 163.966 25.1278C164.181 24.8248 164.289 24.3702 164.289 23.7641C164.289 23.1438 164.188 22.6787 163.987 22.3686C163.785 22.0585 163.48 21.9034 163.07 21.9034C162.646 21.9034 162.33 22.0585 162.122 22.3686C161.913 22.6716 161.809 23.1297 161.809 23.7429C161.809 24.3561 161.913 24.8177 162.122 25.1278C162.33 25.4309 162.646 25.5824 163.07 25.5824Z" fill="white"/>
<path d="M180 28.1197C180 28.8808 179.833 29.5539 179.5 30.1389C179.167 30.7239 178.632 31.182 177.895 31.5132C177.166 31.8445 176.204 32.0101 175.01 32.0101C174.169 32.0101 173.415 31.9643 172.749 31.8727C172.089 31.781 171.419 31.6048 170.738 31.3441V28.0351C171.481 28.3804 172.238 28.6306 173.009 28.7857C173.78 28.9337 174.388 29.0077 174.832 29.0077C175.291 29.0077 175.624 28.9584 175.833 28.8597C176.048 28.754 176.156 28.5989 176.156 28.3945C176.156 28.2183 176.083 28.0703 175.937 27.9505C175.798 27.8236 175.544 27.6792 175.176 27.5171C174.815 27.355 174.305 27.1365 173.645 26.8616C172.992 26.5867 172.447 26.2872 172.009 25.963C171.578 25.6388 171.255 25.2512 171.04 24.8001C170.825 24.349 170.717 23.7958 170.717 23.1403C170.717 21.9704 171.162 21.0894 172.051 20.4974C172.94 19.9053 174.117 19.6093 175.583 19.6093C176.36 19.6093 177.093 19.6974 177.781 19.8736C178.468 20.0428 179.18 20.293 179.917 20.6242L178.802 23.2883C178.218 23.0205 177.628 22.8055 177.031 22.6434C176.433 22.4813 175.958 22.4003 175.603 22.4003C175.284 22.4003 175.037 22.4426 174.864 22.5272C174.69 22.6117 174.603 22.7351 174.603 22.8972C174.603 23.0452 174.662 23.1756 174.78 23.2883C174.905 23.4011 175.138 23.5315 175.478 23.6795C175.819 23.8275 176.315 24.0354 176.968 24.3032C177.656 24.5851 178.222 24.8882 178.666 25.2124C179.118 25.5296 179.451 25.9172 179.667 26.3753C179.889 26.8334 180 27.4149 180 28.1197Z" fill="white"/>
</svg>
